<svg width="24" height="25" viewBox="0 0 24 25" fill="none" xmlns="http://www.w3.org/2000/svg">
<path d="M9.17011 16.08C8.98011 16.08 8.79011 16.01 8.64011 15.86C8.35011 15.57 8.35011 15.09 8.64011 14.8L14.3001 9.13999C14.5901 8.84999 15.0701 8.84999 15.3601 9.13999C15.6501 9.42999 15.6501 9.90998 15.3601 10.2L9.70011 15.86C9.56011 16.01 9.36011 16.08 9.17011 16.08Z" fill="#292D32"/>
<path d="M14.8301 16.08C14.6401 16.08 14.4501 16.01 14.3001 15.86L8.64011 10.2C8.35011 9.90998 8.35011 9.42999 8.64011 9.13999C8.93011 8.84999 9.41011 8.84999 9.70011 9.13999L15.3601 14.8C15.6501 15.09 15.6501 15.57 15.3601 15.86C15.2101 16.01 15.0201 16.08 14.8301 16.08Z" fill="#292D32"/>
<path d="M15 23.25H9C3.57 23.25 1.25 20.93 1.25 15.5V9.5C1.25 4.07 3.57 1.75 9 1.75H15C20.43 1.75 22.75 4.07 22.75 9.5V15.5C22.75 20.93 20.43 23.25 15 23.25ZM9 3.25C4.39 3.25 2.75 4.89 2.75 9.5V15.5C2.75 20.11 4.39 21.75 9 21.75H15C19.61 21.75 21.25 20.11 21.25 15.5V9.5C21.25 4.89 19.61 3.25 15 3.25H9Z" fill="#292D32"/>
</svg>
