<svg width="34" height="24" viewBox="0 0 34 24" fill="none" xmlns="http://www.w3.org/2000/svg">
<path d="M14.167 13C14.7753 13.5741 15.5515 14.0491 16.4429 14.3929C17.3343 14.7367 18.3199 14.9411 19.333 14.9923C20.3462 15.0435 21.363 14.9403 22.3147 14.6897C23.2663 14.4392 24.1305 14.047 24.8486 13.54L29.0986 10.54C30.3889 9.59695 31.1029 8.33394 31.0867 7.02296C31.0706 5.71198 30.3256 4.45791 29.0123 3.53087C27.699 2.60383 25.9224 2.07799 24.0652 2.0666C22.208 2.0552 20.4187 2.55918 19.0828 3.46997L16.6461 5.17997M19.8336 11C19.2252 10.4258 18.449 9.95078 17.5577 9.60703C16.6663 9.26327 15.6806 9.05885 14.6675 9.00763C13.6544 8.95641 12.6375 9.0596 11.6859 9.31018C10.7342 9.56077 9.87004 9.9529 9.15195 10.46L4.90195 13.46C3.61166 14.403 2.8977 15.666 2.91384 16.977C2.92998 18.288 3.67493 19.542 4.98823 20.4691C6.30154 21.3961 8.07813 21.9219 9.93536 21.9333C11.7926 21.9447 13.5819 21.4408 14.9178 20.53L17.3403 18.82" stroke="#101828" stroke-width="2" stroke-linecap="round" stroke-linejoin="round"/>
</svg>
