<svg width="112" height="43" viewBox="0 0 112 43" fill="none" xmlns="http://www.w3.org/2000/svg">
<path d="M24.2626 12.2881V24.295C24.2615 25.8641 23.7125 27.3837 22.71 28.5921C21.7075 29.8006 20.3144 30.6223 18.7704 30.9156C17.2265 31.209 15.6284 30.9557 14.2514 30.1993C12.8744 29.443 11.8046 28.231 11.2264 26.772C10.6481 25.3129 10.5974 23.6983 11.0832 22.206C11.5689 20.7137 12.5607 19.4373 13.8876 18.5964C15.2145 17.7556 16.7936 17.403 18.3529 17.5993C19.9122 17.7957 21.3541 18.5288 22.4303 19.6722V12.2881L24.2626 12.2881ZM17.503 19.3756C16.5249 19.3732 15.5682 19.6606 14.7539 20.2016C13.9397 20.7426 13.3046 21.5127 12.9292 22.4143C12.5538 23.316 12.4549 24.3086 12.6451 25.2664C12.8353 26.2242 13.3061 27.1041 13.9976 27.7946C14.6892 28.4851 15.5705 28.955 16.5299 29.1449C17.4893 29.3348 18.4835 29.2361 19.3867 28.8613C20.2898 28.4865 21.0612 27.8525 21.603 27.0395C22.1448 26.2266 22.4328 25.2714 22.4303 24.295C22.4255 22.9917 21.9049 21.7433 20.9819 20.8217C20.0588 19.9002 18.8083 19.3804 17.503 19.3756Z" fill="black"/>
<path d="M30.5021 29.1402C30.821 29.1976 31.1439 29.2307 31.4678 29.2391C32.6194 29.2341 33.7334 28.8293 34.6188 28.0941C35.5042 27.359 36.1059 26.3392 36.3209 25.2097H38.1779C37.959 26.843 37.1507 28.3403 35.9046 29.4209C34.6584 30.5014 33.0602 31.0907 31.4098 31.0783C29.7593 31.066 28.1701 30.4527 26.9404 29.3536C25.7107 28.2545 24.925 26.7452 24.7307 25.1088C24.5365 23.4724 24.947 21.8215 25.8853 20.4659C26.8236 19.1103 28.2252 18.1431 29.827 17.7459C31.4289 17.3487 33.1208 17.5487 34.5854 18.3085C36.05 19.0683 37.1865 20.3355 37.7817 21.8725L30.5021 29.1402ZM28.6946 28.3739L35.5533 21.5264C35.096 20.8661 34.4857 20.3258 33.7745 19.9513C33.0632 19.5769 32.2719 19.3794 31.4678 19.3757C30.4099 19.3698 29.3783 19.7042 28.5256 20.3293C27.673 20.9543 27.0446 21.8369 26.7335 22.8464C26.4224 23.8558 26.4451 24.9385 26.7983 25.934C27.1515 26.9295 27.8164 27.785 28.6946 28.3739Z" fill="black"/>
<path d="M52.1421 30.9449H50.3099V28.9425C49.2316 30.0915 47.7858 30.8291 46.2214 31.0286C44.6571 31.228 43.072 30.8766 41.7392 30.035C40.4063 29.1935 39.409 27.9143 38.919 26.4177C38.429 24.9211 38.477 23.3008 39.0546 21.8357C39.6322 20.3707 40.7034 19.1525 42.0836 18.3909C43.4639 17.6293 45.067 17.372 46.6168 17.6632C48.1667 17.9544 49.5663 18.776 50.5748 19.9865C51.5833 21.197 52.1376 22.7206 52.1421 24.2951V30.9449ZM50.3099 24.2951C50.3074 23.3197 50.0153 22.3669 49.4705 21.5573C48.9257 20.7476 48.1526 20.1174 47.2491 19.7464C46.3455 19.3754 45.352 19.2802 44.3943 19.4729C43.4366 19.6656 42.5576 20.1375 41.8685 20.8289C41.1794 21.5204 40.7111 22.4003 40.5229 23.3574C40.3347 24.3146 40.435 25.3059 40.8111 26.2061C41.1873 27.1064 41.8224 27.875 42.636 28.4149C43.4497 28.9548 44.4055 29.2416 45.3825 29.2392C46.0318 29.2396 46.6747 29.1118 47.2743 28.8632C47.874 28.6145 48.4184 28.25 48.8764 27.7905C49.3343 27.331 49.6967 26.7856 49.9427 26.1857C50.1888 25.5858 50.3135 24.9433 50.3099 24.2951Z" fill="black"/>
<path d="M52.563 12.2881H54.3953V24.295C54.3977 25.6012 54.9168 26.8536 55.8397 27.7795C56.7625 28.7055 58.0143 29.2301 59.3226 29.239V31.0683C57.5267 31.0646 55.8058 30.3491 54.5382 29.0789C53.2706 27.8087 52.5601 26.088 52.563 24.295V12.2881Z" fill="black"/>
<path d="M58.5059 12.2881H60.3382V19.6722C61.4172 18.5225 62.8642 17.7846 64.4297 17.5858C65.9952 17.387 67.5811 17.7396 68.9141 18.583C70.2471 19.4264 71.2436 20.7076 71.7319 22.2059C72.2202 23.7041 72.1696 25.3255 71.589 26.7905C71.0083 28.2555 69.9339 29.4724 68.5509 30.2314C67.1679 30.9903 65.5631 31.2438 64.013 30.9482C62.4629 30.6525 61.0647 29.8262 60.0594 28.6117C59.0541 27.3972 58.5047 25.8705 58.5059 24.295V12.2881ZM60.3382 24.295C60.3357 25.2714 60.6236 26.2266 61.1655 27.0395C61.7073 27.8525 62.4787 28.4865 63.3818 28.8613C64.2849 29.2361 65.2792 29.3348 66.2386 29.1449C67.1979 28.955 68.0792 28.485 68.7708 27.7946C69.4624 27.1041 69.9331 26.2242 70.1233 25.2664C70.3135 24.3086 70.2147 23.316 69.8393 22.4143C69.4638 21.5127 68.8288 20.7426 68.0145 20.2016C67.2003 19.6606 66.2436 19.3732 65.2655 19.3756C63.9602 19.3804 62.7096 19.9002 61.7866 20.8217C60.8636 21.7432 60.3429 22.9917 60.3382 24.295Z" fill="#9D34DA"/>
<path d="M86.0147 24.2951C86.0172 25.6333 85.6218 26.9422 84.8786 28.0559C84.1354 29.1697 83.0779 30.0382 81.84 30.5514C80.6021 31.0647 79.2394 31.1996 77.9246 30.9391C76.6098 30.6787 75.402 30.0345 74.4542 29.0882C73.5064 28.1419 72.8611 26.9361 72.6002 25.6234C72.3393 24.3107 72.4745 22.9503 72.9886 21.7144C73.5027 20.4785 74.3726 19.4227 75.4881 18.6807C76.6037 17.9387 77.9147 17.544 79.2551 17.5464C81.0467 17.5501 82.7639 18.2623 84.0308 19.5271C85.2977 20.7919 86.0111 22.5063 86.0147 24.2951ZM84.1825 24.2951C84.18 23.3197 83.8879 22.3669 83.3431 21.5572C82.7983 20.7476 82.0252 20.1174 81.1217 19.7464C80.2181 19.3753 79.2247 19.2802 78.2669 19.4729C77.3092 19.6655 76.4302 20.1374 75.7411 20.8289C75.052 21.5203 74.5837 22.4003 74.3955 23.3574C74.2073 24.3145 74.3076 25.3059 74.6838 26.2061C75.0599 27.1063 75.695 27.875 76.5087 28.4149C77.3224 28.9547 78.2781 29.2416 79.2551 29.2391C79.9044 29.2395 80.5473 29.1118 81.147 28.8631C81.7466 28.6145 82.291 28.25 82.749 27.7904C83.2069 27.3309 83.5693 26.7856 83.8154 26.1857C84.0614 25.5858 84.1861 24.9433 84.1825 24.2951Z" fill="#9D34DA"/>
<path d="M99.9795 12.2881V24.295C99.9785 25.8641 99.4295 27.3837 98.427 28.5922C97.4245 29.8007 96.0314 30.6224 94.4874 30.9158C92.9434 31.2091 91.3454 30.9558 89.9683 30.1995C88.5913 29.4432 87.5215 28.2311 86.9432 26.7721C86.3649 25.3131 86.3142 23.6984 86.8 22.2061C87.2857 20.7138 88.2775 19.4373 89.6044 18.5964C90.9313 17.7556 92.5104 17.403 94.0698 17.5993C95.6291 17.7957 97.071 18.5287 98.1472 19.6722V12.2881L99.9795 12.2881ZM93.2199 19.3756C92.2419 19.3732 91.2851 19.6606 90.4709 20.2016C89.6566 20.7425 89.0216 21.5126 88.6461 22.4143C88.2707 23.316 88.1718 24.3086 88.362 25.2664C88.5523 26.2242 89.023 27.1041 89.7145 27.7946C90.4061 28.485 91.2874 28.955 92.2468 29.1449C93.2062 29.3348 94.2004 29.2361 95.1036 28.8613C96.0067 28.4865 96.7781 27.8525 97.3199 27.0396C97.8617 26.2266 98.1497 25.2714 98.1472 24.295C98.1425 22.9918 97.6218 21.7433 96.6988 20.8217C95.7758 19.9002 94.5252 19.3804 93.2199 19.3756Z" fill="#9D34DA"/>
<path d="M100.4 28.5963C100.645 28.5963 100.884 28.6687 101.088 28.8046C101.292 28.9404 101.45 29.1334 101.544 29.3593C101.638 29.5851 101.662 29.8337 101.614 30.0734C101.567 30.3132 101.449 30.5334 101.276 30.7063C101.102 30.8791 100.882 30.9969 100.642 31.0445C100.402 31.0922 100.153 31.0678 99.9264 30.9742C99.7002 30.8807 99.5068 30.7222 99.3708 30.519C99.2348 30.3157 99.1622 30.0767 99.1622 29.8323C99.1606 29.6695 99.1915 29.5081 99.2531 29.3574C99.3148 29.2067 99.4059 29.0698 99.5212 28.9547C99.6365 28.8396 99.7736 28.7486 99.9245 28.6871C100.075 28.6255 100.237 28.5946 100.4 28.5963Z" fill="#9D34DA"/>
</svg>
