<svg width="18" height="21" viewBox="0 0 18 21" fill="none" xmlns="http://www.w3.org/2000/svg">
<path d="M17.62 6.95C16.57 2.33 12.54 0.25 8.99997 0.25C8.99997 0.25 8.99997 0.25 8.98997 0.25C5.45997 0.25 1.41997 2.32 0.369973 6.94C-0.800027 12.1 2.35997 16.47 5.21997 19.22C6.27997 20.24 7.63997 20.75 8.99997 20.75C10.36 20.75 11.72 20.24 12.77 19.22C15.63 16.47 18.79 12.11 17.62 6.95ZM8.99997 11.96C7.25997 11.96 5.84997 10.55 5.84997 8.81C5.84997 7.07 7.25997 5.66 8.99997 5.66C10.74 5.66 12.15 7.07 12.15 8.81C12.15 10.55 10.74 11.96 8.99997 11.96Z" fill="#818181"/>
</svg>
