<svg width="24" height="25" viewBox="0 0 24 25" fill="none" xmlns="http://www.w3.org/2000/svg">
<path opacity="0.4" d="M19.3399 14.9899L18.3399 13.3299C18.1299 12.9599 17.9399 12.2599 17.9399 11.8499V9.3199C17.9399 6.0599 15.2899 3.3999 12.0199 3.3999C8.74994 3.3999 6.09994 6.0599 6.09994 9.3199V11.8499C6.09994 12.2599 5.90994 12.9599 5.69994 13.3199L4.68994 14.9899C4.28994 15.6599 4.19994 16.3999 4.44994 17.0799C4.68994 17.7499 5.25994 18.2699 5.99994 18.5199C7.93994 19.1799 9.97994 19.4999 12.0199 19.4999C14.0599 19.4999 16.0999 19.1799 18.0399 18.5299C18.7399 18.2999 19.2799 17.7699 19.5399 17.0799C19.7999 16.3899 19.7299 15.6299 19.3399 14.9899Z" fill="#212121"/>
<path d="M14.25 3.82C13.56 3.55 12.81 3.4 12.02 3.4C11.24 3.4 10.49 3.54 9.80005 3.82C10.23 3.01 11.08 2.5 12.02 2.5C12.97 2.5 13.81 3.01 14.25 3.82Z" fill="#212121"/>
<path d="M14.8301 20.51C14.4101 21.67 13.3001 22.5 12.0001 22.5C11.2101 22.5 10.4301 22.18 9.88005 21.61C9.56005 21.31 9.32005 20.91 9.18005 20.5C9.31005 20.52 9.44005 20.53 9.58005 20.55C9.81005 20.58 10.0501 20.61 10.2901 20.63C10.8601 20.68 11.4401 20.71 12.0201 20.71C12.5901 20.71 13.1601 20.68 13.7201 20.63C13.9301 20.61 14.1401 20.6 14.3401 20.57C14.5001 20.55 14.6601 20.53 14.8301 20.51Z" fill="#212121"/>
</svg>
