<svg width="24" height="25" viewBox="0 0 24 25" fill="none" xmlns="http://www.w3.org/2000/svg">
<path d="M15.39 5.71L16.7999 8.53C16.9899 8.92 17.4999 9.29 17.9299 9.37L20.48 9.79C22.11 10.06 22.49 11.24 21.32 12.42L19.3299 14.41C18.9999 14.74 18.81 15.39 18.92 15.86L19.4899 18.32C19.9399 20.26 18.9 21.02 17.19 20L14.7999 18.58C14.3699 18.32 13.65 18.32 13.22 18.58L10.8299 20C9.11994 21.01 8.07995 20.26 8.52995 18.32L9.09996 15.86C9.20996 15.4 9.01995 14.75 8.68995 14.41L6.69996 12.42C5.52996 11.25 5.90996 10.07 7.53996 9.79L10.0899 9.37C10.5199 9.3 11.03 8.92 11.22 8.53L12.63 5.71C13.38 4.18 14.62 4.18 15.39 5.71Z" fill="#9D34DA"/>
<path opacity="0.4" d="M8 6.25H2C1.59 6.25 1.25 5.91 1.25 5.5C1.25 5.09 1.59 4.75 2 4.75H8C8.41 4.75 8.75 5.09 8.75 5.5C8.75 5.91 8.41 6.25 8 6.25Z" fill="#9D34DA"/>
<path opacity="0.4" d="M5 20.25H2C1.59 20.25 1.25 19.91 1.25 19.5C1.25 19.09 1.59 18.75 2 18.75H5C5.41 18.75 5.75 19.09 5.75 19.5C5.75 19.91 5.41 20.25 5 20.25Z" fill="#9D34DA"/>
<path opacity="0.4" d="M3 13.25H2C1.59 13.25 1.25 12.91 1.25 12.5C1.25 12.09 1.59 11.75 2 11.75H3C3.41 11.75 3.75 12.09 3.75 12.5C3.75 12.91 3.41 13.25 3 13.25Z" fill="#9D34DA"/>
</svg>
