<svg width="20" height="21" viewBox="0 0 20 21" fill="none" xmlns="http://www.w3.org/2000/svg">
<path d="M1.66666 11.3V13C1.66666 17.1667 3.33333 18.8334 7.5 18.8334H12.5C16.6667 18.8334 18.3333 17.1667 18.3333 13V8.00002C18.3333 3.83335 16.6667 2.16669 12.5 2.16669H7.5C3.33333 2.16669 1.66666 3.83335 1.66666 8.00002" fill="white"/>
<path d="M1.66666 11.3V13C1.66666 17.1667 3.33333 18.8334 7.5 18.8334H12.5C16.6667 18.8334 18.3333 17.1667 18.3333 13V8.00002C18.3333 3.83335 16.6667 2.16669 12.5 2.16669H7.5C3.33333 2.16669 1.66666 3.83335 1.66666 8.00002" stroke="#292D32" stroke-width="1.5" stroke-linecap="round" stroke-linejoin="round"/>
<path d="M6.10833 12.575L8.09166 9.99999C8.375 9.63332 8.9 9.56665 9.26666 9.84999L10.7917 11.05C11.1583 11.3333 11.6833 11.2667 11.9667 10.9083L13.8917 8.42499" fill="white"/>
<path d="M6.10833 12.575L8.09166 9.99999C8.375 9.63332 8.9 9.56665 9.26666 9.84999L10.7917 11.05C11.1583 11.3333 11.6833 11.2667 11.9667 10.9083L13.8917 8.42499" stroke="#292D32" stroke-width="1.5" stroke-linecap="round" stroke-linejoin="round"/>
</svg>
