<svg width="48" height="48" viewBox="0 0 48 48" fill="none" xmlns="http://www.w3.org/2000/svg">
<rect width="48" height="48" rx="24" fill="#F0E1F9"/>
<path d="M20.6668 32.3333H27.3335C30.6835 32.3333 31.2835 30.9917 31.4585 29.3583L32.0835 22.6917C32.3085 20.6583 31.7252 19 28.1668 19H19.8335C16.2752 19 15.6918 20.6583 15.9168 22.6917L16.5418 29.3583C16.7168 30.9917 17.3168 32.3333 20.6668 32.3333Z" stroke="#9D34DA" stroke-width="1.5" stroke-miterlimit="10" stroke-linecap="round" stroke-linejoin="round"/>
<path d="M20.6665 19.0001V18.3334C20.6665 16.8584 20.6665 15.6667 23.3332 15.6667H24.6665C27.3332 15.6667 27.3332 16.8584 27.3332 18.3334V19.0001" stroke="#9D34DA" stroke-width="1.5" stroke-miterlimit="10" stroke-linecap="round" stroke-linejoin="round"/>
<path d="M25.6668 24.8333V25.6667C25.6668 25.675 25.6668 25.675 25.6668 25.6833C25.6668 26.5917 25.6585 27.3333 24.0002 27.3333C22.3502 27.3333 22.3335 26.6 22.3335 25.6917V24.8333C22.3335 24 22.3335 24 23.1668 24H24.8335C25.6668 24 25.6668 24 25.6668 24.8333Z" stroke="#9D34DA" stroke-width="1.5" stroke-miterlimit="10" stroke-linecap="round" stroke-linejoin="round"/>
<path d="M32.0415 23.1667C30.1165 24.5667 27.9165 25.4001 25.6665 25.6834" stroke="#9D34DA" stroke-width="1.5" stroke-miterlimit="10" stroke-linecap="round" stroke-linejoin="round"/>
<path d="M16.1831 23.3916C18.0581 24.6749 20.1748 25.4499 22.3331 25.6916" stroke="#9D34DA" stroke-width="1.5" stroke-miterlimit="10" stroke-linecap="round" stroke-linejoin="round"/>
</svg>
