<svg width="48" height="48" viewBox="0 0 48 48" fill="none" xmlns="http://www.w3.org/2000/svg">
<rect width="48" height="48" rx="24" fill="#F0E1F9"/>
<path d="M25.5 17.5C26.6 17.5 27.5 16.6 27.5 15.5C27.5 14.4 26.6 13.5 25.5 13.5C24.4 13.5 23.5 14.4 23.5 15.5C23.5 16.6 24.4 17.5 25.5 17.5ZM21.8 20.9L19 35H21.1L22.9 27L25 29V35H27V27.5L24.9 25.5L25.5 22.5C26.8 24 28.8 25 31 25V23C29.1 23 27.5 22 26.7 20.6L25.7 19C25.3 18.4 24.7 18 24 18C23.7 18 23.5 18.1 23.2 18.1L18 20.3V25H20V21.6L21.8 20.9Z" fill="#9D34DA"/>
</svg>
