<svg width="48" height="48" viewBox="0 0 48 48" fill="none" xmlns="http://www.w3.org/2000/svg">
<rect width="48" height="48" rx="24" fill="#F0E1F9"/>
<path d="M29 16C28.7348 16 28.4804 15.8946 28.2929 15.7071C28.1054 15.5196 28 15.2652 28 15C28 14.7348 28.1054 14.4804 28.2929 14.2929C28.4804 14.1054 28.7348 14 29 14H33C33.2652 14 33.5196 14.1054 33.7071 14.2929C33.8946 14.4804 34 14.7348 34 15V19C34 19.2652 33.8946 19.5196 33.7071 19.7071C33.5196 19.8946 33.2652 20 33 20C32.7348 20 32.4804 19.8946 32.2929 19.7071C32.1054 19.5196 32 19.2652 32 19V17.414L26.207 23.207C26.0195 23.3945 25.7652 23.4998 25.5 23.4998C25.2348 23.4998 24.9805 23.3945 24.793 23.207L22 20.414L16.707 25.707C16.5184 25.8892 16.2658 25.99 16.0036 25.9877C15.7414 25.9854 15.4906 25.8802 15.3052 25.6948C15.1198 25.5094 15.0146 25.2586 15.0123 24.9964C15.01 24.7342 15.1108 24.4816 15.293 24.293L21.293 18.293C21.4805 18.1055 21.7348 18.0002 22 18.0002C22.2652 18.0002 22.5195 18.1055 22.707 18.293L25.5 21.086L30.586 16H29ZM17 30V33C17 33.2652 16.8946 33.5196 16.7071 33.7071C16.5196 33.8946 16.2652 34 16 34C15.7348 34 15.4804 33.8946 15.2929 33.7071C15.1054 33.5196 15 33.2652 15 33V30C15 29.7348 15.1054 29.4804 15.2929 29.2929C15.4804 29.1054 15.7348 29 16 29C16.2652 29 16.5196 29.1054 16.7071 29.2929C16.8946 29.4804 17 29.7348 17 30ZM22 26C22 25.7348 21.8946 25.4804 21.7071 25.2929C21.5196 25.1054 21.2652 25 21 25C20.7348 25 20.4804 25.1054 20.2929 25.2929C20.1054 25.4804 20 25.7348 20 26V33C20 33.2652 20.1054 33.5196 20.2929 33.7071C20.4804 33.8946 20.7348 34 21 34C21.2652 34 21.5196 33.8946 21.7071 33.7071C21.8946 33.5196 22 33.2652 22 33V26ZM26 27C26.2652 27 26.5196 27.1054 26.7071 27.2929C26.8946 27.4804 27 27.7348 27 28V33C27 33.2652 26.8946 33.5196 26.7071 33.7071C26.5196 33.8946 26.2652 34 26 34C25.7348 34 25.4804 33.8946 25.2929 33.7071C25.1054 33.5196 25 33.2652 25 33V28C25 27.7348 25.1054 27.4804 25.2929 27.2929C25.4804 27.1054 25.7348 27 26 27ZM32 23C32 22.7348 31.8946 22.4804 31.7071 22.2929C31.5196 22.1054 31.2652 22 31 22C30.7348 22 30.4804 22.1054 30.2929 22.2929C30.1054 22.4804 30 22.7348 30 23V33C30 33.2652 30.1054 33.5196 30.2929 33.7071C30.4804 33.8946 30.7348 34 31 34C31.2652 34 31.5196 33.8946 31.7071 33.7071C31.8946 33.5196 32 33.2652 32 33V23Z" fill="#9D34DA"/>
</svg>
