<svg width="24" height="25" viewBox="0 0 24 25" fill="none" xmlns="http://www.w3.org/2000/svg">
<path d="M2.24993 8.75H21.7499M1.66024 9.32234L11.3985 21.9533C11.4693 22.0455 11.5604 22.1203 11.6646 22.1717C11.7689 22.2232 11.8836 22.2499 11.9999 22.2499C12.1162 22.2499 12.2309 22.2232 12.3352 22.1717C12.4395 22.1203 12.5306 22.0455 12.6013 21.9533L22.3396 9.32234C22.4354 9.19768 22.4909 9.04682 22.4989 8.88983C22.5068 8.73284 22.4668 8.57714 22.3841 8.44344L19.0809 3.11141C19.0129 3.00106 18.9178 2.90993 18.8046 2.84668C18.6915 2.78343 18.5641 2.75015 18.4345 2.75H5.5654C5.43578 2.75015 5.30835 2.78343 5.19522 2.84668C5.08208 2.90993 4.987 3.00106 4.91899 3.11141L1.61571 8.44344C1.53305 8.57714 1.49304 8.73284 1.50099 8.88983C1.50895 9.04682 1.56449 9.19768 1.66024 9.32234V9.32234Z" stroke="#9D34DA" stroke-width="1.5" stroke-linecap="round" stroke-linejoin="round"/>
<path d="M18.75 3.5L16.5 8.75L12 2.75M5.25 3.5L7.5 8.75L12 2.75M12 21.5L7.5 8.75M12 21.5L16.5 8.75" stroke="#9D34DA" stroke-width="1.5" stroke-linecap="round" stroke-linejoin="round"/>
</svg>
