<svg width="48" height="48" viewBox="0 0 48 48" fill="none" xmlns="http://www.w3.org/2000/svg">
<rect width="48" height="48" rx="24" fill="#F0E1F9"/>
<path d="M24.0938 13.0261C24.0703 13.0261 24.0375 13.0261 24.0094 13.0317C23.7938 13.0716 23.5359 13.2708 23.3672 13.726C23.1891 14.1807 23.1516 14.8289 23.3062 15.5232C23.4656 16.2089 23.7937 16.8 24.1594 17.161C24.5156 17.5219 24.8391 17.6203 25.0547 17.5828C25.2797 17.55 25.5281 17.3438 25.6969 16.8938C25.875 16.4419 25.9219 15.7847 25.7625 15.0961C25.5984 14.4024 25.275 13.8169 24.9094 13.4583C24.6 13.1396 24.3141 13.0261 24.0938 13.0261ZM29.5031 19.0969C28.9875 19.111 28.3359 19.2469 27.7031 19.5141C26.9719 19.8328 26.4094 20.2594 26.1 20.6625C25.7906 21.0516 25.7625 21.3469 25.8609 21.5203C25.9641 21.6938 26.25 21.8578 26.7984 21.8813C27.3469 21.9141 28.0875 21.7782 28.8141 21.4688C29.5406 21.1547 30.1125 20.7235 30.4219 20.3297C30.7313 19.9407 30.7547 19.636 30.6562 19.4625C30.5578 19.2844 30.2672 19.1297 29.7188 19.111C29.6437 19.0969 29.5781 19.0969 29.5031 19.0969ZM23.1141 23.4516C22.8047 23.4563 22.5234 23.4938 22.2703 23.5594C21.7172 23.7 21.3984 23.9532 21.2953 24.2578C21.1781 24.5625 21.2953 24.9282 21.6609 25.3219C22.0453 25.7063 22.6781 26.0766 23.4656 26.2828C24.2484 26.4891 25.0031 26.4844 25.5656 26.3344C26.1328 26.1891 26.4516 25.9313 26.5547 25.6313C26.6625 25.3266 26.5547 24.9657 26.175 24.5672C25.8047 24.1828 25.1719 23.8125 24.3844 23.611C23.9391 23.4938 23.5031 23.4469 23.1141 23.4516ZM30.6469 26.175L27.75 27.5485C27.9469 27.5578 28.4391 27.5719 28.4391 27.5719L28.7484 27.9797L31.3125 26.6438L30.6469 26.175ZM28.0922 26.1797L25.4016 27.4547C25.6594 27.4688 26.2688 27.4782 26.5125 27.4922L28.8469 26.386L28.0922 26.1797ZM32.4328 26.686L29.1281 28.4391L29.8078 29.3157L33.3 27.225L32.4328 26.686ZM19.3641 27.1125C19.2221 27.1123 19.0806 27.128 18.9422 27.1594C15.5906 27.9328 13.6125 27.9985 13.0266 27.9985H12.8438V33.0375C12.8438 33.0375 13.3875 32.9578 14.2922 32.9532C16.0406 32.9532 19.1203 33.2532 22.1203 35.0063C22.2797 35.1047 22.6219 35.1422 23.0484 35.1422C24.1875 35.1422 25.9172 34.8703 26.3156 34.7203C30.3281 33.2157 35.1562 29.086 35.1562 29.086L33.6328 27.7547C33.6328 27.7547 29.8922 30.1407 29.4188 30.3703C25.1484 32.4657 21.6891 31.1578 21.6891 31.1578C21.6891 31.1578 27.3094 31.2985 29.1141 29.8782L28.0547 28.2844C28.0547 28.2844 24.1734 28.1766 22.7906 27.9938C22.0687 27.9 20.5078 27.1125 19.3641 27.1125Z" fill="#9D34DA"/>
</svg>
