<svg width="48" height="48" viewBox="0 0 48 48" fill="none" xmlns="http://www.w3.org/2000/svg">
<rect width="48" height="48" rx="24" fill="#F0E1F9"/>
<path d="M23 20C22.4696 20 21.9609 20.2107 21.5858 20.5858C21.2107 20.9609 21 21.4696 21 22C21 22.5304 21.2107 23.0391 21.5858 23.4142C21.9609 23.7893 22.4696 24 23 24C23.5304 24 24.0391 23.7893 24.4142 23.4142C24.7893 23.0391 25 22.5304 25 22C25 21.4696 24.7893 20.9609 24.4142 20.5858C24.0391 20.2107 23.5304 20 23 20ZM22 22C22 21.7348 22.1054 21.4804 22.2929 21.2929C22.4804 21.1054 22.7348 21 23 21C23.2652 21 23.5196 21.1054 23.7071 21.2929C23.8946 21.4804 24 21.7348 24 22C24 22.2652 23.8946 22.5196 23.7071 22.7071C23.5196 22.8946 23.2652 23 23 23C22.7348 23 22.4804 22.8946 22.2929 22.7071C22.1054 22.5196 22 22.2652 22 22ZM16 18.5C16 18.1022 16.158 17.7206 16.4393 17.4393C16.7206 17.158 17.1022 17 17.5 17H28.5C28.8978 17 29.2794 17.158 29.5607 17.4393C29.842 17.7206 30 18.1022 30 18.5V22H29V21H28C27.4696 21 26.9609 20.7893 26.5858 20.4142C26.2107 20.0391 26 19.5304 26 19V18H20V19C20 19.5304 19.7893 20.0391 19.4142 20.4142C19.0391 20.7893 18.5304 21 18 21H17V23H18C18.5304 23 19.0391 23.2107 19.4142 23.5858C19.7893 23.9609 20 24.4696 20 25V26H25V27H17.5C17.1022 27 16.7206 26.842 16.4393 26.5607C16.158 26.2794 16 25.8978 16 25.5V18.5ZM17.5 18C17.3674 18 17.2402 18.0527 17.1464 18.1464C17.0527 18.2402 17 18.3674 17 18.5V20H18C18.2652 20 18.5196 19.8946 18.7071 19.7071C18.8946 19.5196 19 19.2652 19 19V18H17.5ZM28.5 18H27V19C27 19.2652 27.1054 19.5196 27.2929 19.7071C27.4804 19.8946 27.7348 20 28 20H29V18.5C29 18.3674 28.9473 18.2402 28.8536 18.1464C28.7598 18.0527 28.6326 18 28.5 18ZM17.5 26H19V25C19 24.7348 18.8946 24.4804 18.7071 24.2929C18.5196 24.1054 18.2652 24 18 24H17V25.5C17 25.6326 17.0527 25.7598 17.1464 25.8536C17.2402 25.9473 17.3674 26 17.5 26ZM31 22V19.085C31.2926 19.1884 31.5459 19.3801 31.725 19.6335C31.9041 19.8869 32.0002 20.1897 32 20.5V22H31ZM25 28V29H19.5C19.1897 29.0002 18.8869 28.9041 18.6335 28.725C18.3801 28.5459 18.1884 28.2926 18.085 28H25ZM27.5 23C27.1022 23 26.7206 23.158 26.4393 23.4393C26.158 23.7206 26 24.1022 26 24.5V31.5C26 31.8978 26.158 32.2794 26.4393 32.5607C26.7206 32.842 27.1022 33 27.5 33H31.5C31.8978 33 32.2794 32.842 32.5607 32.5607C32.842 32.2794 33 31.8978 33 31.5V24.5C33 24.1022 32.842 23.7206 32.5607 23.4393C32.2794 23.158 31.8978 23 31.5 23H27.5ZM27.5 27H28.5C28.6326 27 28.7598 27.0527 28.8536 27.1464C28.9473 27.2402 29 27.3674 29 27.5C29 27.6326 28.9473 27.7598 28.8536 27.8536C28.7598 27.9473 28.6326 28 28.5 28H27.5C27.3674 28 27.2402 27.9473 27.1464 27.8536C27.0527 27.7598 27 27.6326 27 27.5C27 27.3674 27.0527 27.2402 27.1464 27.1464C27.2402 27.0527 27.3674 27 27.5 27ZM30.5 27H31.5C31.6326 27 31.7598 27.0527 31.8536 27.1464C31.9473 27.2402 32 27.3674 32 27.5C32 27.6326 31.9473 27.7598 31.8536 27.8536C31.7598 27.9473 31.6326 28 31.5 28H30.5C30.3674 28 30.2402 27.9473 30.1464 27.8536C30.0527 27.7598 30 27.6326 30 27.5C30 27.3674 30.0527 27.2402 30.1464 27.1464C30.2402 27.0527 30.3674 27 30.5 27ZM27.5 29H28.5C28.6326 29 28.7598 29.0527 28.8536 29.1464C28.9473 29.2402 29 29.3674 29 29.5C29 29.6326 28.9473 29.7598 28.8536 29.8536C28.7598 29.9473 28.6326 30 28.5 30H27.5C27.3674 30 27.2402 29.9473 27.1464 29.8536C27.0527 29.7598 27 29.6326 27 29.5C27 29.3674 27.0527 29.2402 27.1464 29.1464C27.2402 29.0527 27.3674 29 27.5 29ZM30.5 29H31.5C31.6326 29 31.7598 29.0527 31.8536 29.1464C31.9473 29.2402 32 29.3674 32 29.5C32 29.6326 31.9473 29.7598 31.8536 29.8536C31.7598 29.9473 31.6326 30 31.5 30H30.5C30.3674 30 30.2402 29.9473 30.1464 29.8536C30.0527 29.7598 30 29.6326 30 29.5C30 29.3674 30.0527 29.2402 30.1464 29.1464C30.2402 29.0527 30.3674 29 30.5 29ZM27.5 31H28.5C28.6326 31 28.7598 31.0527 28.8536 31.1464C28.9473 31.2402 29 31.3674 29 31.5C29 31.6326 28.9473 31.7598 28.8536 31.8536C28.7598 31.9473 28.6326 32 28.5 32H27.5C27.3674 32 27.2402 31.9473 27.1464 31.8536C27.0527 31.7598 27 31.6326 27 31.5C27 31.3674 27.0527 31.2402 27.1464 31.1464C27.2402 31.0527 27.3674 31 27.5 31ZM30.5 31H31.5C31.6326 31 31.7598 31.0527 31.8536 31.1464C31.9473 31.2402 32 31.3674 32 31.5C32 31.6326 31.9473 31.7598 31.8536 31.8536C31.7598 31.9473 31.6326 32 31.5 32H30.5C30.3674 32 30.2402 31.9473 30.1464 31.8536C30.0527 31.7598 30 31.6326 30 31.5C30 31.3674 30.0527 31.2402 30.1464 31.1464C30.2402 31.0527 30.3674 31 30.5 31ZM27 24.5C27 24.3674 27.0527 24.2402 27.1464 24.1464C27.2402 24.0527 27.3674 24 27.5 24H31.5C31.6326 24 31.7598 24.0527 31.8536 24.1464C31.9473 24.2402 32 24.3674 32 24.5V25.5C32 25.6326 31.9473 25.7598 31.8536 25.8536C31.7598 25.9473 31.6326 26 31.5 26H27.5C27.3674 26 27.2402 25.9473 27.1464 25.8536C27.0527 25.7598 27 25.6326 27 25.5V24.5Z" fill="#9D34DA"/>
</svg>
