<svg width="20" height="21" viewBox="0 0 20 21" fill="none" xmlns="http://www.w3.org/2000/svg">
<path d="M10 2.16669C7.81669 2.16669 6.04169 3.94169 6.04169 6.12502C6.04169 8.26669 7.71669 10 9.90002 10.075C9.96669 10.0667 10.0334 10.0667 10.0834 10.075C10.1 10.075 10.1084 10.075 10.125 10.075C10.1334 10.075 10.1334 10.075 10.1417 10.075C12.275 10 13.95 8.26669 13.9584 6.12502C13.9584 3.94169 12.1834 2.16669 10 2.16669Z" fill="#818181"/>
<path d="M14.2334 12.2917C11.9084 10.7417 8.1167 10.7417 5.77503 12.2917C4.7167 13 4.13336 13.9583 4.13336 14.9833C4.13336 16.0083 4.7167 16.9583 5.7667 17.6583C6.93336 18.4417 8.4667 18.8333 10 18.8333C11.5334 18.8333 13.0667 18.4417 14.2334 17.6583C15.2834 16.95 15.8667 16 15.8667 14.9667C15.8584 13.9417 15.2834 12.9917 14.2334 12.2917Z" fill="#292D32"/>
</svg>
