<svg width="24" height="24" viewBox="0 0 24 24" fill="none" xmlns="http://www.w3.org/2000/svg">
<path d="M10.8299 19.5C9.11994 20.51 8.07995 19.76 8.52995 17.82M10.8299 19.5L13.22 18.08M10.8299 19.5L10.5757 19.0695L12.9631 17.651M10.8299 19.5L10.5745 19.0701L10.575 19.0699C9.75897 19.5517 9.32432 19.4785 9.1641 19.3619C9.00558 19.2466 8.80222 18.859 9.01702 17.933L9.01704 17.9329L9.58625 15.4763L9.09996 15.36M8.52995 17.82H19.4899C19.9399 19.76 18.9 20.52 17.19 19.5L14.7999 18.08M8.52995 17.82L9.09996 15.36M8.52995 17.82L11.22 8.03C11.03 8.42 10.5199 8.8 10.0899 8.87M13.22 18.08C13.65 17.82 14.3699 17.82 14.7999 18.08M13.22 18.08L12.9646 17.6501L12.9631 17.651M13.22 18.08L12.9612 17.6521C12.9618 17.6518 12.9625 17.6514 12.9631 17.651M14.7999 18.08L15.0586 17.6521C15.058 17.6518 15.0574 17.6514 15.0568 17.651M14.7999 18.08L15.0553 17.6501L15.0568 17.651M15.0568 17.651L17.4453 19.0701L17.4461 19.0706C18.262 19.5573 18.6957 19.4826 18.855 19.3663C19.0145 19.2497 19.2176 18.8587 19.0029 17.933L19.0028 17.9329L18.4331 15.4739C18.4331 15.4738 18.4331 15.4737 18.433 15.4736C18.354 15.1354 18.3874 14.7666 18.4792 14.4452C18.5709 14.1241 18.7363 13.7965 18.9764 13.5564L20.9649 11.568C20.9652 11.5677 20.9654 11.5674 20.9657 11.5672C21.4892 11.0389 21.5442 10.6362 21.4738 10.4162C21.4036 10.1972 21.127 9.90401 20.3983 9.7833C20.3983 9.78329 20.3983 9.78329 20.3983 9.78328L17.8487 9.36335L17.8385 9.36167L17.8385 9.36157C17.5317 9.30448 17.2278 9.15282 16.9781 8.96859C16.7301 8.78562 16.4921 8.53844 16.3517 8.25148L14.9433 5.43477C14.9433 5.43464 14.9432 5.43451 14.9431 5.43438C14.5934 4.73967 14.2238 4.5625 14.0025 4.5625C13.7834 4.5625 13.4187 4.73692 13.0789 5.43008L13.0772 5.43361L13.0772 5.43361L11.6682 8.25153C11.5286 8.53666 11.2921 8.78613 11.0434 8.97117C10.794 9.15668 10.4858 9.31201 10.1709 9.36341L10.1712 9.36335L10.0899 8.87M15.0568 17.651C14.7446 17.4628 14.3621 17.385 14.0099 17.385C13.6578 17.385 13.2753 17.4629 12.9631 17.651M9.09996 15.36L9.58705 15.4729L9.58669 15.4744C9.66641 15.1392 9.63201 14.7722 9.54072 14.4526C9.44906 14.1318 9.28465 13.8048 9.04874 13.5618L9.04878 13.5617L9.04351 13.5564L7.05352 11.5664L6.73925 11.8807L7.05352 11.5664C6.5305 11.0434 6.47581 10.6434 6.54614 10.4237C6.61672 10.2033 6.89491 9.90851 7.62294 9.78307M9.09996 15.36C9.20996 14.9 9.01995 14.25 8.68995 13.91L6.69996 11.92C5.52996 10.75 5.90996 9.57 7.53996 9.29M7.62294 9.78307L10.1703 9.3635L10.0899 8.87M7.62294 9.78307L7.62122 9.78335L7.53996 9.29M7.62294 9.78307C7.62349 9.78298 7.62405 9.78288 7.62461 9.78278L7.53996 9.29M10.0899 8.87L7.53996 9.29" fill="#CC9900" stroke="#CC9900"/>
<path opacity="0.4" d="M8 5.25H2C1.86614 5.25 1.75 5.13386 1.75 5C1.75 4.86614 1.86614 4.75 2 4.75H8C8.13386 4.75 8.25 4.86614 8.25 5C8.25 5.13386 8.13386 5.25 8 5.25Z" fill="#CC9900" stroke="#CC9900"/>
<path opacity="0.4" d="M5 19.75H2C1.59 19.75 1.25 19.41 1.25 19C1.25 18.59 1.59 18.25 2 18.25H5C5.41 18.25 5.75 18.59 5.75 19C5.75 19.41 5.41 19.75 5 19.75Z" fill="#292D32"/>
<path opacity="0.4" d="M3 12.75H2C1.59 12.75 1.25 12.41 1.25 12C1.25 11.59 1.59 11.25 2 11.25H3C3.41 11.25 3.75 11.59 3.75 12C3.75 12.41 3.41 12.75 3 12.75Z" fill="#292D32"/>
</svg>
