<svg width="20" height="21" viewBox="0 0 20 21" fill="none" xmlns="http://www.w3.org/2000/svg">
<path d="M17.875 11.8667V12.7C17.875 12.925 17.7 13.1083 17.4667 13.1167H16.25C15.8083 13.1167 15.4083 12.7917 15.375 12.3583C15.35 12.1 15.45 11.8583 15.6167 11.6917C15.7667 11.5333 15.975 11.45 16.2 11.45H17.4583C17.7 11.4583 17.875 11.6417 17.875 11.8667Z" fill="#292D32"/>
<path d="M14.9917 11.075C14.575 11.4833 14.375 12.0916 14.5417 12.725C14.7583 13.5 15.5167 13.9916 16.3167 13.9916H17.0417C17.5 13.9916 17.875 14.3666 17.875 14.825V14.9833C17.875 16.7083 16.4667 18.1166 14.7417 18.1166H5.175C3.45 18.1166 2.04167 16.7083 2.04167 14.9833V9.37497C2.04167 8.34997 2.53333 7.44164 3.29167 6.87497C3.81667 6.47497 4.46667 6.24164 5.175 6.24164H14.7417C16.4667 6.24164 17.875 7.64997 17.875 9.37497V9.74164C17.875 10.2 17.5 10.575 17.0417 10.575H16.1917C15.725 10.575 15.3 10.7583 14.9917 11.075Z" fill="#292D32"/>
<path d="M13.5 4.51669C13.725 4.74169 13.5333 5.09169 13.2167 5.09169L6.81667 5.08335C6.45 5.08335 6.25833 4.63335 6.525 4.37502L7.875 3.01669C9.01667 1.88335 10.8667 1.88335 12.0083 3.01669L13.4667 4.49169C13.475 4.50002 13.4917 4.50835 13.5 4.51669Z" fill="#292D32"/>
</svg>
